<mxfile host="Electron" modified="2024-11-22T15:14:45.237Z" agent="Mozilla/5.0 (Windows NT 10.0; Win64; x64) AppleWebKit/537.36 (KHTML, like Gecko) draw.io/22.0.3 Chrome/114.0.5735.289 Electron/25.8.4 Safari/537.36" etag="XZ-nJhjWX5CuSRHa9U8p" version="22.0.3" type="device">
  <diagram id="C5RBs43oDa-KdzZeNtuy" name="Page-1">
    <mxGraphModel dx="1381" dy="815" grid="1" gridSize="10" guides="1" tooltips="1" connect="1" arrows="1" fold="1" page="1" pageScale="1" pageWidth="827" pageHeight="1169" math="0" shadow="0">
      <root>
        <mxCell id="WIyWlLk6GJQsqaUBKTNV-0" />
        <mxCell id="WIyWlLk6GJQsqaUBKTNV-1" parent="WIyWlLk6GJQsqaUBKTNV-0" />
        <mxCell id="Gzsf5MgbfDvUHmPUTWWB-0" value="AbsActionDistribution" style="swimlane;fontStyle=1;align=center;verticalAlign=top;childLayout=stackLayout;horizontal=1;startSize=26;horizontalStack=0;resizeParent=1;resizeParentMax=0;resizeLast=0;collapsible=1;marginBottom=0;whiteSpace=wrap;html=1;" parent="WIyWlLk6GJQsqaUBKTNV-1" vertex="1">
          <mxGeometry x="1400" y="210" width="160" height="86" as="geometry" />
        </mxCell>
        <mxCell id="Gzsf5MgbfDvUHmPUTWWB-2" value="" style="line;strokeWidth=1;fillColor=none;align=left;verticalAlign=middle;spacingTop=-1;spacingLeft=3;spacingRight=3;rotatable=0;labelPosition=right;points=[];portConstraint=eastwest;strokeColor=inherit;" parent="Gzsf5MgbfDvUHmPUTWWB-0" vertex="1">
          <mxGeometry y="26" width="160" height="8" as="geometry" />
        </mxCell>
        <mxCell id="Gzsf5MgbfDvUHmPUTWWB-3" value="+&amp;nbsp;sample" style="text;strokeColor=none;fillColor=none;align=left;verticalAlign=top;spacingLeft=4;spacingRight=4;overflow=hidden;rotatable=0;points=[[0,0.5],[1,0.5]];portConstraint=eastwest;whiteSpace=wrap;html=1;" parent="Gzsf5MgbfDvUHmPUTWWB-0" vertex="1">
          <mxGeometry y="34" width="160" height="26" as="geometry" />
        </mxCell>
        <mxCell id="Gzsf5MgbfDvUHmPUTWWB-4" value="+ update" style="text;strokeColor=none;fillColor=none;align=left;verticalAlign=top;spacingLeft=4;spacingRight=4;overflow=hidden;rotatable=0;points=[[0,0.5],[1,0.5]];portConstraint=eastwest;whiteSpace=wrap;html=1;" parent="Gzsf5MgbfDvUHmPUTWWB-0" vertex="1">
          <mxGeometry y="60" width="160" height="26" as="geometry" />
        </mxCell>
        <mxCell id="Gzsf5MgbfDvUHmPUTWWB-5" value="SimpleActionDistribution" style="swimlane;fontStyle=1;align=center;verticalAlign=top;childLayout=stackLayout;horizontal=1;startSize=26;horizontalStack=0;resizeParent=1;resizeParentMax=0;resizeLast=0;collapsible=1;marginBottom=0;whiteSpace=wrap;html=1;" parent="WIyWlLk6GJQsqaUBKTNV-1" vertex="1">
          <mxGeometry x="1400" y="330" width="160" height="112" as="geometry">
            <mxRectangle x="150" y="230" width="170" height="30" as="alternateBounds" />
          </mxGeometry>
        </mxCell>
        <mxCell id="Gzsf5MgbfDvUHmPUTWWB-11" value="+&amp;nbsp;dist" style="text;strokeColor=none;fillColor=none;align=left;verticalAlign=top;spacingLeft=4;spacingRight=4;overflow=hidden;rotatable=0;points=[[0,0.5],[1,0.5]];portConstraint=eastwest;whiteSpace=wrap;html=1;" parent="Gzsf5MgbfDvUHmPUTWWB-5" vertex="1">
          <mxGeometry y="26" width="160" height="26" as="geometry" />
        </mxCell>
        <mxCell id="Gzsf5MgbfDvUHmPUTWWB-6" value="" style="line;strokeWidth=1;fillColor=none;align=left;verticalAlign=middle;spacingTop=-1;spacingLeft=3;spacingRight=3;rotatable=0;labelPosition=right;points=[];portConstraint=eastwest;strokeColor=inherit;" parent="Gzsf5MgbfDvUHmPUTWWB-5" vertex="1">
          <mxGeometry y="52" width="160" height="8" as="geometry" />
        </mxCell>
        <mxCell id="Gzsf5MgbfDvUHmPUTWWB-7" value="+&amp;nbsp;sample" style="text;strokeColor=none;fillColor=none;align=left;verticalAlign=top;spacingLeft=4;spacingRight=4;overflow=hidden;rotatable=0;points=[[0,0.5],[1,0.5]];portConstraint=eastwest;whiteSpace=wrap;html=1;" parent="Gzsf5MgbfDvUHmPUTWWB-5" vertex="1">
          <mxGeometry y="60" width="160" height="26" as="geometry" />
        </mxCell>
        <mxCell id="Gzsf5MgbfDvUHmPUTWWB-8" value="+ update" style="text;strokeColor=none;fillColor=none;align=left;verticalAlign=top;spacingLeft=4;spacingRight=4;overflow=hidden;rotatable=0;points=[[0,0.5],[1,0.5]];portConstraint=eastwest;whiteSpace=wrap;html=1;" parent="Gzsf5MgbfDvUHmPUTWWB-5" vertex="1">
          <mxGeometry y="86" width="160" height="26" as="geometry" />
        </mxCell>
        <mxCell id="Gzsf5MgbfDvUHmPUTWWB-14" value="" style="endArrow=block;startArrow=none;endFill=0;startFill=0;endSize=8;html=1;verticalAlign=bottom;dashed=1;labelBackgroundColor=none;rounded=0;" parent="WIyWlLk6GJQsqaUBKTNV-1" source="Gzsf5MgbfDvUHmPUTWWB-5" target="Gzsf5MgbfDvUHmPUTWWB-0" edge="1">
          <mxGeometry width="160" relative="1" as="geometry">
            <mxPoint x="1590" y="470" as="sourcePoint" />
            <mxPoint x="1750" y="470" as="targetPoint" />
          </mxGeometry>
        </mxCell>
        <mxCell id="Gzsf5MgbfDvUHmPUTWWB-15" value="AbsData" style="swimlane;fontStyle=1;align=center;verticalAlign=top;childLayout=stackLayout;horizontal=1;startSize=26;horizontalStack=0;resizeParent=1;resizeParentMax=0;resizeLast=0;collapsible=1;marginBottom=0;whiteSpace=wrap;html=1;" parent="WIyWlLk6GJQsqaUBKTNV-1" vertex="1">
          <mxGeometry x="334" y="210" width="160" height="34" as="geometry" />
        </mxCell>
        <mxCell id="Gzsf5MgbfDvUHmPUTWWB-16" value="" style="line;strokeWidth=1;fillColor=none;align=left;verticalAlign=middle;spacingTop=-1;spacingLeft=3;spacingRight=3;rotatable=0;labelPosition=right;points=[];portConstraint=eastwest;strokeColor=inherit;" parent="Gzsf5MgbfDvUHmPUTWWB-15" vertex="1">
          <mxGeometry y="26" width="160" height="8" as="geometry" />
        </mxCell>
        <mxCell id="Gzsf5MgbfDvUHmPUTWWB-19" value="ActionData" style="swimlane;fontStyle=1;align=center;verticalAlign=top;childLayout=stackLayout;horizontal=1;startSize=26;horizontalStack=0;resizeParent=1;resizeParentMax=0;resizeLast=0;collapsible=1;marginBottom=0;whiteSpace=wrap;html=1;" parent="WIyWlLk6GJQsqaUBKTNV-1" vertex="1">
          <mxGeometry x="270" y="370" width="160" height="60" as="geometry" />
        </mxCell>
        <mxCell id="Gzsf5MgbfDvUHmPUTWWB-20" value="+ actions" style="text;strokeColor=none;fillColor=none;align=left;verticalAlign=top;spacingLeft=4;spacingRight=4;overflow=hidden;rotatable=0;points=[[0,0.5],[1,0.5]];portConstraint=eastwest;whiteSpace=wrap;html=1;" parent="Gzsf5MgbfDvUHmPUTWWB-19" vertex="1">
          <mxGeometry y="26" width="160" height="26" as="geometry" />
        </mxCell>
        <mxCell id="Gzsf5MgbfDvUHmPUTWWB-21" value="" style="line;strokeWidth=1;fillColor=none;align=left;verticalAlign=middle;spacingTop=-1;spacingLeft=3;spacingRight=3;rotatable=0;labelPosition=right;points=[];portConstraint=eastwest;strokeColor=inherit;" parent="Gzsf5MgbfDvUHmPUTWWB-19" vertex="1">
          <mxGeometry y="52" width="160" height="8" as="geometry" />
        </mxCell>
        <mxCell id="Gzsf5MgbfDvUHmPUTWWB-23" value="" style="endArrow=block;startArrow=none;endFill=0;startFill=0;endSize=8;html=1;verticalAlign=bottom;dashed=1;labelBackgroundColor=none;rounded=0;" parent="WIyWlLk6GJQsqaUBKTNV-1" source="Gzsf5MgbfDvUHmPUTWWB-19" target="Gzsf5MgbfDvUHmPUTWWB-15" edge="1">
          <mxGeometry width="160" relative="1" as="geometry">
            <mxPoint x="330" y="320" as="sourcePoint" />
            <mxPoint x="490" y="320" as="targetPoint" />
          </mxGeometry>
        </mxCell>
        <mxCell id="Gzsf5MgbfDvUHmPUTWWB-27" value="" style="endArrow=block;startArrow=none;endFill=0;startFill=0;endSize=8;html=1;verticalAlign=bottom;dashed=1;labelBackgroundColor=none;rounded=0;" parent="WIyWlLk6GJQsqaUBKTNV-1" source="Gzsf5MgbfDvUHmPUTWWB-24" target="Gzsf5MgbfDvUHmPUTWWB-15" edge="1">
          <mxGeometry width="160" relative="1" as="geometry">
            <mxPoint x="371" y="380" as="sourcePoint" />
            <mxPoint x="418" y="254" as="targetPoint" />
          </mxGeometry>
        </mxCell>
        <mxCell id="Gzsf5MgbfDvUHmPUTWWB-28" value="ActionPairsPrefPairsContainer" style="swimlane;fontStyle=1;align=center;verticalAlign=top;childLayout=stackLayout;horizontal=1;startSize=26;horizontalStack=0;resizeParent=1;resizeParentMax=0;resizeLast=0;collapsible=1;marginBottom=0;whiteSpace=wrap;html=1;" parent="WIyWlLk6GJQsqaUBKTNV-1" vertex="1">
          <mxGeometry x="670" y="360" width="190" height="86" as="geometry" />
        </mxCell>
        <mxCell id="Gzsf5MgbfDvUHmPUTWWB-31" value="+&amp;nbsp;action_pairs_data" style="text;strokeColor=none;fillColor=none;align=left;verticalAlign=top;spacingLeft=4;spacingRight=4;overflow=hidden;rotatable=0;points=[[0,0.5],[1,0.5]];portConstraint=eastwest;whiteSpace=wrap;html=1;" parent="Gzsf5MgbfDvUHmPUTWWB-28" vertex="1">
          <mxGeometry y="26" width="190" height="26" as="geometry" />
        </mxCell>
        <mxCell id="Gzsf5MgbfDvUHmPUTWWB-29" value="+&amp;nbsp;pref_pairs_data" style="text;strokeColor=none;fillColor=none;align=left;verticalAlign=top;spacingLeft=4;spacingRight=4;overflow=hidden;rotatable=0;points=[[0,0.5],[1,0.5]];portConstraint=eastwest;whiteSpace=wrap;html=1;" parent="Gzsf5MgbfDvUHmPUTWWB-28" vertex="1">
          <mxGeometry y="52" width="190" height="26" as="geometry" />
        </mxCell>
        <mxCell id="Gzsf5MgbfDvUHmPUTWWB-30" value="" style="line;strokeWidth=1;fillColor=none;align=left;verticalAlign=middle;spacingTop=-1;spacingLeft=3;spacingRight=3;rotatable=0;labelPosition=right;points=[];portConstraint=eastwest;strokeColor=inherit;" parent="Gzsf5MgbfDvUHmPUTWWB-28" vertex="1">
          <mxGeometry y="78" width="190" height="8" as="geometry" />
        </mxCell>
        <mxCell id="Gzsf5MgbfDvUHmPUTWWB-34" value="" style="endArrow=diamondThin;endFill=0;endSize=24;html=1;rounded=0;" parent="WIyWlLk6GJQsqaUBKTNV-1" source="Gzsf5MgbfDvUHmPUTWWB-24" target="Gzsf5MgbfDvUHmPUTWWB-31" edge="1">
          <mxGeometry width="160" relative="1" as="geometry">
            <mxPoint x="420" y="575" as="sourcePoint" />
            <mxPoint x="580" y="575" as="targetPoint" />
          </mxGeometry>
        </mxCell>
        <mxCell id="Gzsf5MgbfDvUHmPUTWWB-35" value="" style="endArrow=block;startArrow=none;endFill=0;startFill=0;endSize=8;html=1;verticalAlign=bottom;dashed=1;labelBackgroundColor=none;rounded=0;" parent="WIyWlLk6GJQsqaUBKTNV-1" source="Gzsf5MgbfDvUHmPUTWWB-28" target="Gzsf5MgbfDvUHmPUTWWB-15" edge="1">
          <mxGeometry width="160" relative="1" as="geometry">
            <mxPoint x="512" y="380" as="sourcePoint" />
            <mxPoint x="434" y="254" as="targetPoint" />
          </mxGeometry>
        </mxCell>
        <mxCell id="Gzsf5MgbfDvUHmPUTWWB-36" value="PreferencePairsData" style="swimlane;fontStyle=1;align=center;verticalAlign=top;childLayout=stackLayout;horizontal=1;startSize=26;horizontalStack=0;resizeParent=1;resizeParentMax=0;resizeLast=0;collapsible=1;marginBottom=0;whiteSpace=wrap;html=1;" parent="WIyWlLk6GJQsqaUBKTNV-1" vertex="1">
          <mxGeometry x="370" y="470" width="160" height="60" as="geometry" />
        </mxCell>
        <mxCell id="Gzsf5MgbfDvUHmPUTWWB-37" value="+&amp;nbsp;preference_pairs" style="text;strokeColor=none;fillColor=none;align=left;verticalAlign=top;spacingLeft=4;spacingRight=4;overflow=hidden;rotatable=0;points=[[0,0.5],[1,0.5]];portConstraint=eastwest;whiteSpace=wrap;html=1;" parent="Gzsf5MgbfDvUHmPUTWWB-36" vertex="1">
          <mxGeometry y="26" width="160" height="26" as="geometry" />
        </mxCell>
        <mxCell id="Gzsf5MgbfDvUHmPUTWWB-38" value="" style="line;strokeWidth=1;fillColor=none;align=left;verticalAlign=middle;spacingTop=-1;spacingLeft=3;spacingRight=3;rotatable=0;labelPosition=right;points=[];portConstraint=eastwest;strokeColor=inherit;" parent="Gzsf5MgbfDvUHmPUTWWB-36" vertex="1">
          <mxGeometry y="52" width="160" height="8" as="geometry" />
        </mxCell>
        <mxCell id="Gzsf5MgbfDvUHmPUTWWB-39" value="" style="endArrow=block;startArrow=none;endFill=0;startFill=0;endSize=8;html=1;verticalAlign=bottom;dashed=1;labelBackgroundColor=none;rounded=0;" parent="WIyWlLk6GJQsqaUBKTNV-1" source="Gzsf5MgbfDvUHmPUTWWB-36" target="Gzsf5MgbfDvUHmPUTWWB-15" edge="1">
          <mxGeometry width="160" relative="1" as="geometry">
            <mxPoint x="512" y="380" as="sourcePoint" />
            <mxPoint x="434" y="254" as="targetPoint" />
          </mxGeometry>
        </mxCell>
        <mxCell id="Gzsf5MgbfDvUHmPUTWWB-24" value="ActionPairsData" style="swimlane;fontStyle=1;align=center;verticalAlign=top;childLayout=stackLayout;horizontal=1;startSize=26;horizontalStack=0;resizeParent=1;resizeParentMax=0;resizeLast=0;collapsible=1;marginBottom=0;whiteSpace=wrap;html=1;" parent="WIyWlLk6GJQsqaUBKTNV-1" vertex="1">
          <mxGeometry x="450" y="369" width="160" height="60" as="geometry" />
        </mxCell>
        <mxCell id="Gzsf5MgbfDvUHmPUTWWB-25" value="+&amp;nbsp;action_pairs" style="text;strokeColor=none;fillColor=none;align=left;verticalAlign=top;spacingLeft=4;spacingRight=4;overflow=hidden;rotatable=0;points=[[0,0.5],[1,0.5]];portConstraint=eastwest;whiteSpace=wrap;html=1;" parent="Gzsf5MgbfDvUHmPUTWWB-24" vertex="1">
          <mxGeometry y="26" width="160" height="26" as="geometry" />
        </mxCell>
        <mxCell id="Gzsf5MgbfDvUHmPUTWWB-26" value="" style="line;strokeWidth=1;fillColor=none;align=left;verticalAlign=middle;spacingTop=-1;spacingLeft=3;spacingRight=3;rotatable=0;labelPosition=right;points=[];portConstraint=eastwest;strokeColor=inherit;" parent="Gzsf5MgbfDvUHmPUTWWB-24" vertex="1">
          <mxGeometry y="52" width="160" height="8" as="geometry" />
        </mxCell>
        <mxCell id="Gzsf5MgbfDvUHmPUTWWB-40" value="" style="endArrow=diamondThin;endFill=0;endSize=24;html=1;rounded=0;entryX=0;entryY=0.5;entryDx=0;entryDy=0;" parent="WIyWlLk6GJQsqaUBKTNV-1" source="Gzsf5MgbfDvUHmPUTWWB-36" target="Gzsf5MgbfDvUHmPUTWWB-29" edge="1">
          <mxGeometry width="160" relative="1" as="geometry">
            <mxPoint x="610" y="410" as="sourcePoint" />
            <mxPoint x="680" y="409" as="targetPoint" />
          </mxGeometry>
        </mxCell>
        <mxCell id="Gzsf5MgbfDvUHmPUTWWB-41" value="ImageData" style="swimlane;fontStyle=1;align=center;verticalAlign=top;childLayout=stackLayout;horizontal=1;startSize=26;horizontalStack=0;resizeParent=1;resizeParentMax=0;resizeLast=0;collapsible=1;marginBottom=0;whiteSpace=wrap;html=1;" parent="WIyWlLk6GJQsqaUBKTNV-1" vertex="1">
          <mxGeometry x="100" y="370" width="160" height="60" as="geometry" />
        </mxCell>
        <mxCell id="Gzsf5MgbfDvUHmPUTWWB-42" value="+&amp;nbsp;images" style="text;strokeColor=none;fillColor=none;align=left;verticalAlign=top;spacingLeft=4;spacingRight=4;overflow=hidden;rotatable=0;points=[[0,0.5],[1,0.5]];portConstraint=eastwest;whiteSpace=wrap;html=1;" parent="Gzsf5MgbfDvUHmPUTWWB-41" vertex="1">
          <mxGeometry y="26" width="160" height="26" as="geometry" />
        </mxCell>
        <mxCell id="Gzsf5MgbfDvUHmPUTWWB-43" value="" style="line;strokeWidth=1;fillColor=none;align=left;verticalAlign=middle;spacingTop=-1;spacingLeft=3;spacingRight=3;rotatable=0;labelPosition=right;points=[];portConstraint=eastwest;strokeColor=inherit;" parent="Gzsf5MgbfDvUHmPUTWWB-41" vertex="1">
          <mxGeometry y="52" width="160" height="8" as="geometry" />
        </mxCell>
        <mxCell id="Gzsf5MgbfDvUHmPUTWWB-44" value="" style="endArrow=block;startArrow=none;endFill=0;startFill=0;endSize=8;html=1;verticalAlign=bottom;dashed=1;labelBackgroundColor=none;rounded=0;" parent="WIyWlLk6GJQsqaUBKTNV-1" source="Gzsf5MgbfDvUHmPUTWWB-41" target="Gzsf5MgbfDvUHmPUTWWB-15" edge="1">
          <mxGeometry width="160" relative="1" as="geometry">
            <mxPoint x="371" y="380" as="sourcePoint" />
            <mxPoint x="418" y="254" as="targetPoint" />
          </mxGeometry>
        </mxCell>
        <mxCell id="Gzsf5MgbfDvUHmPUTWWB-45" value="AbsDiscModel" style="swimlane;fontStyle=1;align=center;verticalAlign=top;childLayout=stackLayout;horizontal=1;startSize=26;horizontalStack=0;resizeParent=1;resizeParentMax=0;resizeLast=0;collapsible=1;marginBottom=0;whiteSpace=wrap;html=1;" parent="WIyWlLk6GJQsqaUBKTNV-1" vertex="1">
          <mxGeometry x="1000" y="210" width="160" height="60" as="geometry" />
        </mxCell>
        <mxCell id="Gzsf5MgbfDvUHmPUTWWB-47" value="" style="line;strokeWidth=1;fillColor=none;align=left;verticalAlign=middle;spacingTop=-1;spacingLeft=3;spacingRight=3;rotatable=0;labelPosition=right;points=[];portConstraint=eastwest;strokeColor=inherit;" parent="Gzsf5MgbfDvUHmPUTWWB-45" vertex="1">
          <mxGeometry y="26" width="160" height="8" as="geometry" />
        </mxCell>
        <mxCell id="Gzsf5MgbfDvUHmPUTWWB-48" value="+&amp;nbsp;discriminate" style="text;strokeColor=none;fillColor=none;align=left;verticalAlign=top;spacingLeft=4;spacingRight=4;overflow=hidden;rotatable=0;points=[[0,0.5],[1,0.5]];portConstraint=eastwest;whiteSpace=wrap;html=1;" parent="Gzsf5MgbfDvUHmPUTWWB-45" vertex="1">
          <mxGeometry y="34" width="160" height="26" as="geometry" />
        </mxCell>
        <mxCell id="Gzsf5MgbfDvUHmPUTWWB-49" value="StackGanDiscModel" style="swimlane;fontStyle=1;align=center;verticalAlign=top;childLayout=stackLayout;horizontal=1;startSize=26;horizontalStack=0;resizeParent=1;resizeParentMax=0;resizeLast=0;collapsible=1;marginBottom=0;whiteSpace=wrap;html=1;" parent="WIyWlLk6GJQsqaUBKTNV-1" vertex="1">
          <mxGeometry x="1000" y="330" width="160" height="190" as="geometry" />
        </mxCell>
        <mxCell id="Gzsf5MgbfDvUHmPUTWWB-50" value="+&amp;nbsp;config_file" style="text;strokeColor=none;fillColor=none;align=left;verticalAlign=top;spacingLeft=4;spacingRight=4;overflow=hidden;rotatable=0;points=[[0,0.5],[1,0.5]];portConstraint=eastwest;whiteSpace=wrap;html=1;" parent="Gzsf5MgbfDvUHmPUTWWB-49" vertex="1">
          <mxGeometry y="26" width="160" height="26" as="geometry" />
        </mxCell>
        <mxCell id="Gzsf5MgbfDvUHmPUTWWB-54" value="+&amp;nbsp;checkpoint_file" style="text;strokeColor=none;fillColor=none;align=left;verticalAlign=top;spacingLeft=4;spacingRight=4;overflow=hidden;rotatable=0;points=[[0,0.5],[1,0.5]];portConstraint=eastwest;whiteSpace=wrap;html=1;" parent="Gzsf5MgbfDvUHmPUTWWB-49" vertex="1">
          <mxGeometry y="52" width="160" height="26" as="geometry" />
        </mxCell>
        <mxCell id="Gzsf5MgbfDvUHmPUTWWB-53" value="+&amp;nbsp;scale_level" style="text;strokeColor=none;fillColor=none;align=left;verticalAlign=top;spacingLeft=4;spacingRight=4;overflow=hidden;rotatable=0;points=[[0,0.5],[1,0.5]];portConstraint=eastwest;whiteSpace=wrap;html=1;" parent="Gzsf5MgbfDvUHmPUTWWB-49" vertex="1">
          <mxGeometry y="78" width="160" height="26" as="geometry" />
        </mxCell>
        <mxCell id="Gzsf5MgbfDvUHmPUTWWB-55" value="+&amp;nbsp;device" style="text;strokeColor=none;fillColor=none;align=left;verticalAlign=top;spacingLeft=4;spacingRight=4;overflow=hidden;rotatable=0;points=[[0,0.5],[1,0.5]];portConstraint=eastwest;whiteSpace=wrap;html=1;" parent="Gzsf5MgbfDvUHmPUTWWB-49" vertex="1">
          <mxGeometry y="104" width="160" height="26" as="geometry" />
        </mxCell>
        <mxCell id="Gzsf5MgbfDvUHmPUTWWB-56" value="+&amp;nbsp;model" style="text;strokeColor=none;fillColor=none;align=left;verticalAlign=top;spacingLeft=4;spacingRight=4;overflow=hidden;rotatable=0;points=[[0,0.5],[1,0.5]];portConstraint=eastwest;whiteSpace=wrap;html=1;" parent="Gzsf5MgbfDvUHmPUTWWB-49" vertex="1">
          <mxGeometry y="130" width="160" height="26" as="geometry" />
        </mxCell>
        <mxCell id="Gzsf5MgbfDvUHmPUTWWB-51" value="" style="line;strokeWidth=1;fillColor=none;align=left;verticalAlign=middle;spacingTop=-1;spacingLeft=3;spacingRight=3;rotatable=0;labelPosition=right;points=[];portConstraint=eastwest;strokeColor=inherit;" parent="Gzsf5MgbfDvUHmPUTWWB-49" vertex="1">
          <mxGeometry y="156" width="160" height="8" as="geometry" />
        </mxCell>
        <mxCell id="Gzsf5MgbfDvUHmPUTWWB-52" value="+&amp;nbsp;discriminate" style="text;strokeColor=none;fillColor=none;align=left;verticalAlign=top;spacingLeft=4;spacingRight=4;overflow=hidden;rotatable=0;points=[[0,0.5],[1,0.5]];portConstraint=eastwest;whiteSpace=wrap;html=1;" parent="Gzsf5MgbfDvUHmPUTWWB-49" vertex="1">
          <mxGeometry y="164" width="160" height="26" as="geometry" />
        </mxCell>
        <mxCell id="Gzsf5MgbfDvUHmPUTWWB-57" value="" style="endArrow=block;startArrow=none;endFill=0;startFill=0;endSize=8;html=1;verticalAlign=bottom;dashed=1;labelBackgroundColor=none;rounded=0;" parent="WIyWlLk6GJQsqaUBKTNV-1" source="Gzsf5MgbfDvUHmPUTWWB-49" target="Gzsf5MgbfDvUHmPUTWWB-45" edge="1">
          <mxGeometry width="160" relative="1" as="geometry">
            <mxPoint x="699" y="370" as="sourcePoint" />
            <mxPoint x="468" y="254" as="targetPoint" />
          </mxGeometry>
        </mxCell>
        <mxCell id="Gzsf5MgbfDvUHmPUTWWB-58" value="AbsFeedbackSource" style="swimlane;fontStyle=1;align=center;verticalAlign=top;childLayout=stackLayout;horizontal=1;startSize=26;horizontalStack=0;resizeParent=1;resizeParentMax=0;resizeLast=0;collapsible=1;marginBottom=0;whiteSpace=wrap;html=1;" parent="WIyWlLk6GJQsqaUBKTNV-1" vertex="1">
          <mxGeometry x="1190" y="210" width="160" height="60" as="geometry" />
        </mxCell>
        <mxCell id="Gzsf5MgbfDvUHmPUTWWB-59" value="" style="line;strokeWidth=1;fillColor=none;align=left;verticalAlign=middle;spacingTop=-1;spacingLeft=3;spacingRight=3;rotatable=0;labelPosition=right;points=[];portConstraint=eastwest;strokeColor=inherit;" parent="Gzsf5MgbfDvUHmPUTWWB-58" vertex="1">
          <mxGeometry y="26" width="160" height="8" as="geometry" />
        </mxCell>
        <mxCell id="Gzsf5MgbfDvUHmPUTWWB-60" value="+&amp;nbsp;generate_feedback" style="text;strokeColor=none;fillColor=none;align=left;verticalAlign=top;spacingLeft=4;spacingRight=4;overflow=hidden;rotatable=0;points=[[0,0.5],[1,0.5]];portConstraint=eastwest;whiteSpace=wrap;html=1;" parent="Gzsf5MgbfDvUHmPUTWWB-58" vertex="1">
          <mxGeometry y="34" width="160" height="26" as="geometry" />
        </mxCell>
        <mxCell id="Gzsf5MgbfDvUHmPUTWWB-62" value="RandomFeedbackSource" style="swimlane;fontStyle=1;align=center;verticalAlign=top;childLayout=stackLayout;horizontal=1;startSize=26;horizontalStack=0;resizeParent=1;resizeParentMax=0;resizeLast=0;collapsible=1;marginBottom=0;whiteSpace=wrap;html=1;" parent="WIyWlLk6GJQsqaUBKTNV-1" vertex="1">
          <mxGeometry x="1190" y="330" width="160" height="60" as="geometry" />
        </mxCell>
        <mxCell id="Gzsf5MgbfDvUHmPUTWWB-64" value="" style="line;strokeWidth=1;fillColor=none;align=left;verticalAlign=middle;spacingTop=-1;spacingLeft=3;spacingRight=3;rotatable=0;labelPosition=right;points=[];portConstraint=eastwest;strokeColor=inherit;" parent="Gzsf5MgbfDvUHmPUTWWB-62" vertex="1">
          <mxGeometry y="26" width="160" height="8" as="geometry" />
        </mxCell>
        <mxCell id="Gzsf5MgbfDvUHmPUTWWB-65" value="+&amp;nbsp;generate_feedback" style="text;strokeColor=none;fillColor=none;align=left;verticalAlign=top;spacingLeft=4;spacingRight=4;overflow=hidden;rotatable=0;points=[[0,0.5],[1,0.5]];portConstraint=eastwest;whiteSpace=wrap;html=1;" parent="Gzsf5MgbfDvUHmPUTWWB-62" vertex="1">
          <mxGeometry y="34" width="160" height="26" as="geometry" />
        </mxCell>
        <mxCell id="Gzsf5MgbfDvUHmPUTWWB-66" value="" style="endArrow=block;startArrow=none;endFill=0;startFill=0;endSize=8;html=1;verticalAlign=bottom;dashed=1;labelBackgroundColor=none;rounded=0;" parent="WIyWlLk6GJQsqaUBKTNV-1" source="Gzsf5MgbfDvUHmPUTWWB-62" target="Gzsf5MgbfDvUHmPUTWWB-58" edge="1">
          <mxGeometry width="160" relative="1" as="geometry">
            <mxPoint x="1080" y="330" as="sourcePoint" />
            <mxPoint x="1080" y="280" as="targetPoint" />
          </mxGeometry>
        </mxCell>
        <mxCell id="Gzsf5MgbfDvUHmPUTWWB-67" value="AbsActionFilter" style="swimlane;fontStyle=1;align=center;verticalAlign=top;childLayout=stackLayout;horizontal=1;startSize=26;horizontalStack=0;resizeParent=1;resizeParentMax=0;resizeLast=0;collapsible=1;marginBottom=0;whiteSpace=wrap;html=1;" parent="WIyWlLk6GJQsqaUBKTNV-1" vertex="1">
          <mxGeometry x="1670" y="210" width="160" height="60" as="geometry" />
        </mxCell>
        <mxCell id="Gzsf5MgbfDvUHmPUTWWB-68" value="" style="line;strokeWidth=1;fillColor=none;align=left;verticalAlign=middle;spacingTop=-1;spacingLeft=3;spacingRight=3;rotatable=0;labelPosition=right;points=[];portConstraint=eastwest;strokeColor=inherit;" parent="Gzsf5MgbfDvUHmPUTWWB-67" vertex="1">
          <mxGeometry y="26" width="160" height="8" as="geometry" />
        </mxCell>
        <mxCell id="Gzsf5MgbfDvUHmPUTWWB-69" value="+&amp;nbsp;filter" style="text;strokeColor=none;fillColor=none;align=left;verticalAlign=top;spacingLeft=4;spacingRight=4;overflow=hidden;rotatable=0;points=[[0,0.5],[1,0.5]];portConstraint=eastwest;whiteSpace=wrap;html=1;" parent="Gzsf5MgbfDvUHmPUTWWB-67" vertex="1">
          <mxGeometry y="34" width="160" height="26" as="geometry" />
        </mxCell>
        <mxCell id="Gzsf5MgbfDvUHmPUTWWB-71" value="CompositeActionFilter" style="swimlane;fontStyle=1;align=center;verticalAlign=top;childLayout=stackLayout;horizontal=1;startSize=26;horizontalStack=0;resizeParent=1;resizeParentMax=0;resizeLast=0;collapsible=1;marginBottom=0;whiteSpace=wrap;html=1;" parent="WIyWlLk6GJQsqaUBKTNV-1" vertex="1">
          <mxGeometry x="1590" y="330" width="160" height="112" as="geometry" />
        </mxCell>
        <mxCell id="Gzsf5MgbfDvUHmPUTWWB-72" value="+&amp;nbsp;filters" style="text;strokeColor=none;fillColor=none;align=left;verticalAlign=top;spacingLeft=4;spacingRight=4;overflow=hidden;rotatable=0;points=[[0,0.5],[1,0.5]];portConstraint=eastwest;whiteSpace=wrap;html=1;" parent="Gzsf5MgbfDvUHmPUTWWB-71" vertex="1">
          <mxGeometry y="26" width="160" height="26" as="geometry" />
        </mxCell>
        <mxCell id="Gzsf5MgbfDvUHmPUTWWB-73" value="" style="line;strokeWidth=1;fillColor=none;align=left;verticalAlign=middle;spacingTop=-1;spacingLeft=3;spacingRight=3;rotatable=0;labelPosition=right;points=[];portConstraint=eastwest;strokeColor=inherit;" parent="Gzsf5MgbfDvUHmPUTWWB-71" vertex="1">
          <mxGeometry y="52" width="160" height="8" as="geometry" />
        </mxCell>
        <mxCell id="Gzsf5MgbfDvUHmPUTWWB-75" value="+&amp;nbsp;add_filter" style="text;strokeColor=none;fillColor=none;align=left;verticalAlign=top;spacingLeft=4;spacingRight=4;overflow=hidden;rotatable=0;points=[[0,0.5],[1,0.5]];portConstraint=eastwest;whiteSpace=wrap;html=1;" parent="Gzsf5MgbfDvUHmPUTWWB-71" vertex="1">
          <mxGeometry y="60" width="160" height="26" as="geometry" />
        </mxCell>
        <mxCell id="Gzsf5MgbfDvUHmPUTWWB-74" value="+&amp;nbsp;filter" style="text;strokeColor=none;fillColor=none;align=left;verticalAlign=top;spacingLeft=4;spacingRight=4;overflow=hidden;rotatable=0;points=[[0,0.5],[1,0.5]];portConstraint=eastwest;whiteSpace=wrap;html=1;" parent="Gzsf5MgbfDvUHmPUTWWB-71" vertex="1">
          <mxGeometry y="86" width="160" height="26" as="geometry" />
        </mxCell>
        <mxCell id="Gzsf5MgbfDvUHmPUTWWB-76" value="RandomActionFilter" style="swimlane;fontStyle=1;align=center;verticalAlign=top;childLayout=stackLayout;horizontal=1;startSize=26;horizontalStack=0;resizeParent=1;resizeParentMax=0;resizeLast=0;collapsible=1;marginBottom=0;whiteSpace=wrap;html=1;" parent="WIyWlLk6GJQsqaUBKTNV-1" vertex="1">
          <mxGeometry x="1780" y="330" width="160" height="86" as="geometry" />
        </mxCell>
        <mxCell id="Gzsf5MgbfDvUHmPUTWWB-86" value="+&amp;nbsp;limit" style="text;strokeColor=none;fillColor=none;align=left;verticalAlign=top;spacingLeft=4;spacingRight=4;overflow=hidden;rotatable=0;points=[[0,0.5],[1,0.5]];portConstraint=eastwest;whiteSpace=wrap;html=1;" parent="Gzsf5MgbfDvUHmPUTWWB-76" vertex="1">
          <mxGeometry y="26" width="160" height="26" as="geometry" />
        </mxCell>
        <mxCell id="Gzsf5MgbfDvUHmPUTWWB-77" value="" style="line;strokeWidth=1;fillColor=none;align=left;verticalAlign=middle;spacingTop=-1;spacingLeft=3;spacingRight=3;rotatable=0;labelPosition=right;points=[];portConstraint=eastwest;strokeColor=inherit;" parent="Gzsf5MgbfDvUHmPUTWWB-76" vertex="1">
          <mxGeometry y="52" width="160" height="8" as="geometry" />
        </mxCell>
        <mxCell id="Gzsf5MgbfDvUHmPUTWWB-78" value="+&amp;nbsp;filter" style="text;strokeColor=none;fillColor=none;align=left;verticalAlign=top;spacingLeft=4;spacingRight=4;overflow=hidden;rotatable=0;points=[[0,0.5],[1,0.5]];portConstraint=eastwest;whiteSpace=wrap;html=1;" parent="Gzsf5MgbfDvUHmPUTWWB-76" vertex="1">
          <mxGeometry y="60" width="160" height="26" as="geometry" />
        </mxCell>
        <mxCell id="Gzsf5MgbfDvUHmPUTWWB-79" value="" style="endArrow=block;startArrow=none;endFill=0;startFill=0;endSize=8;html=1;verticalAlign=bottom;dashed=1;labelBackgroundColor=none;rounded=0;" parent="WIyWlLk6GJQsqaUBKTNV-1" source="Gzsf5MgbfDvUHmPUTWWB-71" target="Gzsf5MgbfDvUHmPUTWWB-67" edge="1">
          <mxGeometry width="160" relative="1" as="geometry">
            <mxPoint x="1490" y="340" as="sourcePoint" />
            <mxPoint x="1490" y="306" as="targetPoint" />
          </mxGeometry>
        </mxCell>
        <mxCell id="Gzsf5MgbfDvUHmPUTWWB-80" value="" style="endArrow=block;startArrow=none;endFill=0;startFill=0;endSize=8;html=1;verticalAlign=bottom;dashed=1;labelBackgroundColor=none;rounded=0;" parent="WIyWlLk6GJQsqaUBKTNV-1" source="Gzsf5MgbfDvUHmPUTWWB-76" target="Gzsf5MgbfDvUHmPUTWWB-67" edge="1">
          <mxGeometry width="160" relative="1" as="geometry">
            <mxPoint x="1711" y="340" as="sourcePoint" />
            <mxPoint x="1744" y="280" as="targetPoint" />
          </mxGeometry>
        </mxCell>
        <mxCell id="Gzsf5MgbfDvUHmPUTWWB-81" value="ScoreActionFilter" style="swimlane;fontStyle=1;align=center;verticalAlign=top;childLayout=stackLayout;horizontal=1;startSize=26;horizontalStack=0;resizeParent=1;resizeParentMax=0;resizeLast=0;collapsible=1;marginBottom=0;whiteSpace=wrap;html=1;" parent="WIyWlLk6GJQsqaUBKTNV-1" vertex="1">
          <mxGeometry x="1950" y="330" width="160" height="138" as="geometry" />
        </mxCell>
        <mxCell id="Gzsf5MgbfDvUHmPUTWWB-84" value="+&amp;nbsp;mode" style="text;strokeColor=none;fillColor=none;align=left;verticalAlign=top;spacingLeft=4;spacingRight=4;overflow=hidden;rotatable=0;points=[[0,0.5],[1,0.5]];portConstraint=eastwest;whiteSpace=wrap;html=1;" parent="Gzsf5MgbfDvUHmPUTWWB-81" vertex="1">
          <mxGeometry y="26" width="160" height="26" as="geometry" />
        </mxCell>
        <mxCell id="Gzsf5MgbfDvUHmPUTWWB-87" value="+&amp;nbsp;limit" style="text;strokeColor=none;fillColor=none;align=left;verticalAlign=top;spacingLeft=4;spacingRight=4;overflow=hidden;rotatable=0;points=[[0,0.5],[1,0.5]];portConstraint=eastwest;whiteSpace=wrap;html=1;" parent="Gzsf5MgbfDvUHmPUTWWB-81" vertex="1">
          <mxGeometry y="52" width="160" height="26" as="geometry" />
        </mxCell>
        <mxCell id="Gzsf5MgbfDvUHmPUTWWB-85" value="+ mode" style="text;strokeColor=none;fillColor=none;align=left;verticalAlign=top;spacingLeft=4;spacingRight=4;overflow=hidden;rotatable=0;points=[[0,0.5],[1,0.5]];portConstraint=eastwest;whiteSpace=wrap;html=1;" parent="Gzsf5MgbfDvUHmPUTWWB-81" vertex="1">
          <mxGeometry y="78" width="160" height="26" as="geometry" />
        </mxCell>
        <mxCell id="Gzsf5MgbfDvUHmPUTWWB-82" value="" style="line;strokeWidth=1;fillColor=none;align=left;verticalAlign=middle;spacingTop=-1;spacingLeft=3;spacingRight=3;rotatable=0;labelPosition=right;points=[];portConstraint=eastwest;strokeColor=inherit;" parent="Gzsf5MgbfDvUHmPUTWWB-81" vertex="1">
          <mxGeometry y="104" width="160" height="8" as="geometry" />
        </mxCell>
        <mxCell id="Gzsf5MgbfDvUHmPUTWWB-83" value="+&amp;nbsp;filter" style="text;strokeColor=none;fillColor=none;align=left;verticalAlign=top;spacingLeft=4;spacingRight=4;overflow=hidden;rotatable=0;points=[[0,0.5],[1,0.5]];portConstraint=eastwest;whiteSpace=wrap;html=1;" parent="Gzsf5MgbfDvUHmPUTWWB-81" vertex="1">
          <mxGeometry y="112" width="160" height="26" as="geometry" />
        </mxCell>
        <mxCell id="Gzsf5MgbfDvUHmPUTWWB-88" value="" style="endArrow=block;startArrow=none;endFill=0;startFill=0;endSize=8;html=1;verticalAlign=bottom;dashed=1;labelBackgroundColor=none;rounded=0;exitX=0.25;exitY=0;exitDx=0;exitDy=0;" parent="WIyWlLk6GJQsqaUBKTNV-1" source="Gzsf5MgbfDvUHmPUTWWB-81" target="Gzsf5MgbfDvUHmPUTWWB-67" edge="1">
          <mxGeometry width="160" relative="1" as="geometry">
            <mxPoint x="1834" y="340" as="sourcePoint" />
            <mxPoint x="1785" y="280" as="targetPoint" />
          </mxGeometry>
        </mxCell>
        <mxCell id="X_hx1oaPw-TJNX2XA199-0" value="AbsGenModel" style="swimlane;fontStyle=1;align=center;verticalAlign=top;childLayout=stackLayout;horizontal=1;startSize=26;horizontalStack=0;resizeParent=1;resizeParentMax=0;resizeLast=0;collapsible=1;marginBottom=0;whiteSpace=wrap;html=1;" vertex="1" parent="WIyWlLk6GJQsqaUBKTNV-1">
          <mxGeometry x="1730" y="680" width="180" height="164" as="geometry" />
        </mxCell>
        <mxCell id="X_hx1oaPw-TJNX2XA199-2" value="" style="line;strokeWidth=1;fillColor=none;align=left;verticalAlign=middle;spacingTop=-1;spacingLeft=3;spacingRight=3;rotatable=0;labelPosition=right;points=[];portConstraint=eastwest;strokeColor=inherit;" vertex="1" parent="X_hx1oaPw-TJNX2XA199-0">
          <mxGeometry y="26" width="180" height="8" as="geometry" />
        </mxCell>
        <mxCell id="X_hx1oaPw-TJNX2XA199-3" value="+&amp;nbsp;generate" style="text;strokeColor=none;fillColor=none;align=left;verticalAlign=top;spacingLeft=4;spacingRight=4;overflow=hidden;rotatable=0;points=[[0,0.5],[1,0.5]];portConstraint=eastwest;whiteSpace=wrap;html=1;" vertex="1" parent="X_hx1oaPw-TJNX2XA199-0">
          <mxGeometry y="34" width="180" height="26" as="geometry" />
        </mxCell>
        <mxCell id="X_hx1oaPw-TJNX2XA199-5" value="+&amp;nbsp;sample_random_actions" style="text;strokeColor=none;fillColor=none;align=left;verticalAlign=top;spacingLeft=4;spacingRight=4;overflow=hidden;rotatable=0;points=[[0,0.5],[1,0.5]];portConstraint=eastwest;whiteSpace=wrap;html=1;" vertex="1" parent="X_hx1oaPw-TJNX2XA199-0">
          <mxGeometry y="60" width="180" height="26" as="geometry" />
        </mxCell>
        <mxCell id="X_hx1oaPw-TJNX2XA199-6" value="+&amp;nbsp;get_input_noise_distribution" style="text;strokeColor=none;fillColor=none;align=left;verticalAlign=top;spacingLeft=4;spacingRight=4;overflow=hidden;rotatable=0;points=[[0,0.5],[1,0.5]];portConstraint=eastwest;whiteSpace=wrap;html=1;" vertex="1" parent="X_hx1oaPw-TJNX2XA199-0">
          <mxGeometry y="86" width="180" height="26" as="geometry" />
        </mxCell>
        <mxCell id="X_hx1oaPw-TJNX2XA199-7" value="+&amp;nbsp;get_media_logger" style="text;strokeColor=none;fillColor=none;align=left;verticalAlign=top;spacingLeft=4;spacingRight=4;overflow=hidden;rotatable=0;points=[[0,0.5],[1,0.5]];portConstraint=eastwest;whiteSpace=wrap;html=1;" vertex="1" parent="X_hx1oaPw-TJNX2XA199-0">
          <mxGeometry y="112" width="180" height="26" as="geometry" />
        </mxCell>
        <mxCell id="X_hx1oaPw-TJNX2XA199-4" value="+&amp;nbsp;set_device" style="text;strokeColor=none;fillColor=none;align=left;verticalAlign=top;spacingLeft=4;spacingRight=4;overflow=hidden;rotatable=0;points=[[0,0.5],[1,0.5]];portConstraint=eastwest;whiteSpace=wrap;html=1;" vertex="1" parent="X_hx1oaPw-TJNX2XA199-0">
          <mxGeometry y="138" width="180" height="26" as="geometry" />
        </mxCell>
        <mxCell id="X_hx1oaPw-TJNX2XA199-8" value="AbsMetricsLogger" style="swimlane;fontStyle=1;align=center;verticalAlign=top;childLayout=stackLayout;horizontal=1;startSize=26;horizontalStack=0;resizeParent=1;resizeParentMax=0;resizeLast=0;collapsible=1;marginBottom=0;whiteSpace=wrap;html=1;" vertex="1" parent="WIyWlLk6GJQsqaUBKTNV-1">
          <mxGeometry x="1180" y="632" width="160" height="86" as="geometry" />
        </mxCell>
        <mxCell id="X_hx1oaPw-TJNX2XA199-10" value="" style="line;strokeWidth=1;fillColor=none;align=left;verticalAlign=middle;spacingTop=-1;spacingLeft=3;spacingRight=3;rotatable=0;labelPosition=right;points=[];portConstraint=eastwest;strokeColor=inherit;" vertex="1" parent="X_hx1oaPw-TJNX2XA199-8">
          <mxGeometry y="26" width="160" height="8" as="geometry" />
        </mxCell>
        <mxCell id="X_hx1oaPw-TJNX2XA199-11" value="+&amp;nbsp;log" style="text;strokeColor=none;fillColor=none;align=left;verticalAlign=top;spacingLeft=4;spacingRight=4;overflow=hidden;rotatable=0;points=[[0,0.5],[1,0.5]];portConstraint=eastwest;whiteSpace=wrap;html=1;" vertex="1" parent="X_hx1oaPw-TJNX2XA199-8">
          <mxGeometry y="34" width="160" height="26" as="geometry" />
        </mxCell>
        <mxCell id="X_hx1oaPw-TJNX2XA199-12" value="+&amp;nbsp;log_last_entries_mean" style="text;strokeColor=none;fillColor=none;align=left;verticalAlign=top;spacingLeft=4;spacingRight=4;overflow=hidden;rotatable=0;points=[[0,0.5],[1,0.5]];portConstraint=eastwest;whiteSpace=wrap;html=1;" vertex="1" parent="X_hx1oaPw-TJNX2XA199-8">
          <mxGeometry y="60" width="160" height="26" as="geometry" />
        </mxCell>
        <mxCell id="X_hx1oaPw-TJNX2XA199-13" value="return" style="html=1;verticalAlign=bottom;endArrow=open;dashed=1;endSize=8;curved=0;rounded=0;" edge="1" parent="WIyWlLk6GJQsqaUBKTNV-1" source="X_hx1oaPw-TJNX2XA199-7" target="X_hx1oaPw-TJNX2XA199-8">
          <mxGeometry relative="1" as="geometry">
            <mxPoint x="1400" y="540" as="sourcePoint" />
            <mxPoint x="1320" y="540" as="targetPoint" />
          </mxGeometry>
        </mxCell>
        <mxCell id="X_hx1oaPw-TJNX2XA199-14" value="StackGanGenModel" style="swimlane;fontStyle=1;align=center;verticalAlign=top;childLayout=stackLayout;horizontal=1;startSize=26;horizontalStack=0;resizeParent=1;resizeParentMax=0;resizeLast=0;collapsible=1;marginBottom=0;whiteSpace=wrap;html=1;" vertex="1" parent="WIyWlLk6GJQsqaUBKTNV-1">
          <mxGeometry x="1730" y="890" width="180" height="294" as="geometry" />
        </mxCell>
        <mxCell id="X_hx1oaPw-TJNX2XA199-21" value="+&amp;nbsp;config_file" style="text;strokeColor=none;fillColor=none;align=left;verticalAlign=top;spacingLeft=4;spacingRight=4;overflow=hidden;rotatable=0;points=[[0,0.5],[1,0.5]];portConstraint=eastwest;whiteSpace=wrap;html=1;" vertex="1" parent="X_hx1oaPw-TJNX2XA199-14">
          <mxGeometry y="26" width="180" height="26" as="geometry" />
        </mxCell>
        <mxCell id="X_hx1oaPw-TJNX2XA199-22" value="+&amp;nbsp;checkpoint_file" style="text;strokeColor=none;fillColor=none;align=left;verticalAlign=top;spacingLeft=4;spacingRight=4;overflow=hidden;rotatable=0;points=[[0,0.5],[1,0.5]];portConstraint=eastwest;whiteSpace=wrap;html=1;" vertex="1" parent="X_hx1oaPw-TJNX2XA199-14">
          <mxGeometry y="52" width="180" height="26" as="geometry" />
        </mxCell>
        <mxCell id="X_hx1oaPw-TJNX2XA199-25" value="+&amp;nbsp;model" style="text;strokeColor=none;fillColor=none;align=left;verticalAlign=top;spacingLeft=4;spacingRight=4;overflow=hidden;rotatable=0;points=[[0,0.5],[1,0.5]];portConstraint=eastwest;whiteSpace=wrap;html=1;" vertex="1" parent="X_hx1oaPw-TJNX2XA199-14">
          <mxGeometry y="78" width="180" height="26" as="geometry" />
        </mxCell>
        <mxCell id="X_hx1oaPw-TJNX2XA199-24" value="+&amp;nbsp;device" style="text;strokeColor=none;fillColor=none;align=left;verticalAlign=top;spacingLeft=4;spacingRight=4;overflow=hidden;rotatable=0;points=[[0,0.5],[1,0.5]];portConstraint=eastwest;whiteSpace=wrap;html=1;" vertex="1" parent="X_hx1oaPw-TJNX2XA199-14">
          <mxGeometry y="104" width="180" height="26" as="geometry" />
        </mxCell>
        <mxCell id="X_hx1oaPw-TJNX2XA199-23" value="+&amp;nbsp;scale_level" style="text;strokeColor=none;fillColor=none;align=left;verticalAlign=top;spacingLeft=4;spacingRight=4;overflow=hidden;rotatable=0;points=[[0,0.5],[1,0.5]];portConstraint=eastwest;whiteSpace=wrap;html=1;" vertex="1" parent="X_hx1oaPw-TJNX2XA199-14">
          <mxGeometry y="130" width="180" height="26" as="geometry" />
        </mxCell>
        <mxCell id="X_hx1oaPw-TJNX2XA199-15" value="" style="line;strokeWidth=1;fillColor=none;align=left;verticalAlign=middle;spacingTop=-1;spacingLeft=3;spacingRight=3;rotatable=0;labelPosition=right;points=[];portConstraint=eastwest;strokeColor=inherit;" vertex="1" parent="X_hx1oaPw-TJNX2XA199-14">
          <mxGeometry y="156" width="180" height="8" as="geometry" />
        </mxCell>
        <mxCell id="X_hx1oaPw-TJNX2XA199-16" value="+&amp;nbsp;generate" style="text;strokeColor=none;fillColor=none;align=left;verticalAlign=top;spacingLeft=4;spacingRight=4;overflow=hidden;rotatable=0;points=[[0,0.5],[1,0.5]];portConstraint=eastwest;whiteSpace=wrap;html=1;" vertex="1" parent="X_hx1oaPw-TJNX2XA199-14">
          <mxGeometry y="164" width="180" height="26" as="geometry" />
        </mxCell>
        <mxCell id="X_hx1oaPw-TJNX2XA199-17" value="+&amp;nbsp;sample_random_actions" style="text;strokeColor=none;fillColor=none;align=left;verticalAlign=top;spacingLeft=4;spacingRight=4;overflow=hidden;rotatable=0;points=[[0,0.5],[1,0.5]];portConstraint=eastwest;whiteSpace=wrap;html=1;" vertex="1" parent="X_hx1oaPw-TJNX2XA199-14">
          <mxGeometry y="190" width="180" height="26" as="geometry" />
        </mxCell>
        <mxCell id="X_hx1oaPw-TJNX2XA199-18" value="+&amp;nbsp;get_input_noise_distribution" style="text;strokeColor=none;fillColor=none;align=left;verticalAlign=top;spacingLeft=4;spacingRight=4;overflow=hidden;rotatable=0;points=[[0,0.5],[1,0.5]];portConstraint=eastwest;whiteSpace=wrap;html=1;" vertex="1" parent="X_hx1oaPw-TJNX2XA199-14">
          <mxGeometry y="216" width="180" height="26" as="geometry" />
        </mxCell>
        <mxCell id="X_hx1oaPw-TJNX2XA199-19" value="+&amp;nbsp;get_media_logger" style="text;strokeColor=none;fillColor=none;align=left;verticalAlign=top;spacingLeft=4;spacingRight=4;overflow=hidden;rotatable=0;points=[[0,0.5],[1,0.5]];portConstraint=eastwest;whiteSpace=wrap;html=1;" vertex="1" parent="X_hx1oaPw-TJNX2XA199-14">
          <mxGeometry y="242" width="180" height="26" as="geometry" />
        </mxCell>
        <mxCell id="X_hx1oaPw-TJNX2XA199-20" value="+&amp;nbsp;set_device" style="text;strokeColor=none;fillColor=none;align=left;verticalAlign=top;spacingLeft=4;spacingRight=4;overflow=hidden;rotatable=0;points=[[0,0.5],[1,0.5]];portConstraint=eastwest;whiteSpace=wrap;html=1;" vertex="1" parent="X_hx1oaPw-TJNX2XA199-14">
          <mxGeometry y="268" width="180" height="26" as="geometry" />
        </mxCell>
        <mxCell id="X_hx1oaPw-TJNX2XA199-26" value="" style="endArrow=block;startArrow=none;endFill=0;startFill=0;endSize=8;html=1;verticalAlign=bottom;dashed=1;labelBackgroundColor=none;rounded=0;" edge="1" parent="WIyWlLk6GJQsqaUBKTNV-1" source="X_hx1oaPw-TJNX2XA199-14" target="X_hx1oaPw-TJNX2XA199-0">
          <mxGeometry width="160" relative="1" as="geometry">
            <mxPoint x="1530" y="470" as="sourcePoint" />
            <mxPoint x="1530" y="410" as="targetPoint" />
          </mxGeometry>
        </mxCell>
        <mxCell id="X_hx1oaPw-TJNX2XA199-28" value="AbsLoss" style="swimlane;fontStyle=1;align=center;verticalAlign=top;childLayout=stackLayout;horizontal=1;startSize=26;horizontalStack=0;resizeParent=1;resizeParentMax=0;resizeLast=0;collapsible=1;marginBottom=0;whiteSpace=wrap;html=1;" vertex="1" parent="WIyWlLk6GJQsqaUBKTNV-1">
          <mxGeometry x="660" y="580" width="180" height="60" as="geometry" />
        </mxCell>
        <mxCell id="X_hx1oaPw-TJNX2XA199-29" value="" style="line;strokeWidth=1;fillColor=none;align=left;verticalAlign=middle;spacingTop=-1;spacingLeft=3;spacingRight=3;rotatable=0;labelPosition=right;points=[];portConstraint=eastwest;strokeColor=inherit;" vertex="1" parent="X_hx1oaPw-TJNX2XA199-28">
          <mxGeometry y="26" width="180" height="8" as="geometry" />
        </mxCell>
        <mxCell id="X_hx1oaPw-TJNX2XA199-30" value="+&amp;nbsp;calculate_loss" style="text;strokeColor=none;fillColor=none;align=left;verticalAlign=top;spacingLeft=4;spacingRight=4;overflow=hidden;rotatable=0;points=[[0,0.5],[1,0.5]];portConstraint=eastwest;whiteSpace=wrap;html=1;" vertex="1" parent="X_hx1oaPw-TJNX2XA199-28">
          <mxGeometry y="34" width="180" height="26" as="geometry" />
        </mxCell>
        <mxCell id="X_hx1oaPw-TJNX2XA199-35" value="ActionDiscriminatorLoss" style="swimlane;fontStyle=1;align=center;verticalAlign=top;childLayout=stackLayout;horizontal=1;startSize=26;horizontalStack=0;resizeParent=1;resizeParentMax=0;resizeLast=0;collapsible=1;marginBottom=0;whiteSpace=wrap;html=1;" vertex="1" parent="WIyWlLk6GJQsqaUBKTNV-1">
          <mxGeometry x="710" y="820" width="180" height="112" as="geometry" />
        </mxCell>
        <mxCell id="X_hx1oaPw-TJNX2XA199-39" value="+&amp;nbsp;genModel" style="text;strokeColor=none;fillColor=none;align=left;verticalAlign=top;spacingLeft=4;spacingRight=4;overflow=hidden;rotatable=0;points=[[0,0.5],[1,0.5]];portConstraint=eastwest;whiteSpace=wrap;html=1;" vertex="1" parent="X_hx1oaPw-TJNX2XA199-35">
          <mxGeometry y="26" width="180" height="26" as="geometry" />
        </mxCell>
        <mxCell id="X_hx1oaPw-TJNX2XA199-38" value="+&amp;nbsp;discModel" style="text;strokeColor=none;fillColor=none;align=left;verticalAlign=top;spacingLeft=4;spacingRight=4;overflow=hidden;rotatable=0;points=[[0,0.5],[1,0.5]];portConstraint=eastwest;whiteSpace=wrap;html=1;" vertex="1" parent="X_hx1oaPw-TJNX2XA199-35">
          <mxGeometry y="52" width="180" height="26" as="geometry" />
        </mxCell>
        <mxCell id="X_hx1oaPw-TJNX2XA199-36" value="" style="line;strokeWidth=1;fillColor=none;align=left;verticalAlign=middle;spacingTop=-1;spacingLeft=3;spacingRight=3;rotatable=0;labelPosition=right;points=[];portConstraint=eastwest;strokeColor=inherit;" vertex="1" parent="X_hx1oaPw-TJNX2XA199-35">
          <mxGeometry y="78" width="180" height="8" as="geometry" />
        </mxCell>
        <mxCell id="X_hx1oaPw-TJNX2XA199-37" value="+&amp;nbsp;calculate_loss" style="text;strokeColor=none;fillColor=none;align=left;verticalAlign=top;spacingLeft=4;spacingRight=4;overflow=hidden;rotatable=0;points=[[0,0.5],[1,0.5]];portConstraint=eastwest;whiteSpace=wrap;html=1;" vertex="1" parent="X_hx1oaPw-TJNX2XA199-35">
          <mxGeometry y="86" width="180" height="26" as="geometry" />
        </mxCell>
        <mxCell id="X_hx1oaPw-TJNX2XA199-40" value="" style="endArrow=block;startArrow=none;endFill=0;startFill=0;endSize=8;html=1;verticalAlign=bottom;dashed=1;labelBackgroundColor=none;rounded=0;" edge="1" parent="WIyWlLk6GJQsqaUBKTNV-1" source="X_hx1oaPw-TJNX2XA199-35" target="X_hx1oaPw-TJNX2XA199-28">
          <mxGeometry width="160" relative="1" as="geometry">
            <mxPoint x="1350" y="718" as="sourcePoint" />
            <mxPoint x="1350" y="672" as="targetPoint" />
          </mxGeometry>
        </mxCell>
        <mxCell id="X_hx1oaPw-TJNX2XA199-41" value="" style="endArrow=diamondThin;endFill=0;endSize=24;html=1;rounded=0;entryX=0;entryY=0.5;entryDx=0;entryDy=0;" edge="1" parent="WIyWlLk6GJQsqaUBKTNV-1" source="X_hx1oaPw-TJNX2XA199-0" target="X_hx1oaPw-TJNX2XA199-39">
          <mxGeometry width="160" relative="1" as="geometry">
            <mxPoint x="540" y="483" as="sourcePoint" />
            <mxPoint x="680" y="435" as="targetPoint" />
          </mxGeometry>
        </mxCell>
        <mxCell id="X_hx1oaPw-TJNX2XA199-42" value="" style="endArrow=diamondThin;endFill=0;endSize=24;html=1;rounded=0;entryX=0;entryY=0.5;entryDx=0;entryDy=0;" edge="1" parent="WIyWlLk6GJQsqaUBKTNV-1" source="Gzsf5MgbfDvUHmPUTWWB-45" target="X_hx1oaPw-TJNX2XA199-38">
          <mxGeometry width="160" relative="1" as="geometry">
            <mxPoint x="1500" y="699" as="sourcePoint" />
            <mxPoint x="983" y="856" as="targetPoint" />
          </mxGeometry>
        </mxCell>
        <mxCell id="X_hx1oaPw-TJNX2XA199-43" value="ActionRewardLoss" style="swimlane;fontStyle=1;align=center;verticalAlign=top;childLayout=stackLayout;horizontal=1;startSize=26;horizontalStack=0;resizeParent=1;resizeParentMax=0;resizeLast=0;collapsible=1;marginBottom=0;whiteSpace=wrap;html=1;" vertex="1" parent="WIyWlLk6GJQsqaUBKTNV-1">
          <mxGeometry x="450" y="748" width="180" height="86" as="geometry" />
        </mxCell>
        <mxCell id="X_hx1oaPw-TJNX2XA199-44" value="+&amp;nbsp;rewardModel" style="text;strokeColor=none;fillColor=none;align=left;verticalAlign=top;spacingLeft=4;spacingRight=4;overflow=hidden;rotatable=0;points=[[0,0.5],[1,0.5]];portConstraint=eastwest;whiteSpace=wrap;html=1;" vertex="1" parent="X_hx1oaPw-TJNX2XA199-43">
          <mxGeometry y="26" width="180" height="26" as="geometry" />
        </mxCell>
        <mxCell id="X_hx1oaPw-TJNX2XA199-46" value="" style="line;strokeWidth=1;fillColor=none;align=left;verticalAlign=middle;spacingTop=-1;spacingLeft=3;spacingRight=3;rotatable=0;labelPosition=right;points=[];portConstraint=eastwest;strokeColor=inherit;" vertex="1" parent="X_hx1oaPw-TJNX2XA199-43">
          <mxGeometry y="52" width="180" height="8" as="geometry" />
        </mxCell>
        <mxCell id="X_hx1oaPw-TJNX2XA199-47" value="+&amp;nbsp;calculate_loss" style="text;strokeColor=none;fillColor=none;align=left;verticalAlign=top;spacingLeft=4;spacingRight=4;overflow=hidden;rotatable=0;points=[[0,0.5],[1,0.5]];portConstraint=eastwest;whiteSpace=wrap;html=1;" vertex="1" parent="X_hx1oaPw-TJNX2XA199-43">
          <mxGeometry y="60" width="180" height="26" as="geometry" />
        </mxCell>
        <mxCell id="X_hx1oaPw-TJNX2XA199-48" value="AbsRewardModel" style="swimlane;fontStyle=1;align=center;verticalAlign=top;childLayout=stackLayout;horizontal=1;startSize=26;horizontalStack=0;resizeParent=1;resizeParentMax=0;resizeLast=0;collapsible=1;marginBottom=0;whiteSpace=wrap;html=1;" vertex="1" parent="WIyWlLk6GJQsqaUBKTNV-1">
          <mxGeometry x="190" y="680" width="180" height="86" as="geometry" />
        </mxCell>
        <mxCell id="X_hx1oaPw-TJNX2XA199-49" value="+&amp;nbsp;rewardModel" style="text;strokeColor=none;fillColor=none;align=left;verticalAlign=top;spacingLeft=4;spacingRight=4;overflow=hidden;rotatable=0;points=[[0,0.5],[1,0.5]];portConstraint=eastwest;whiteSpace=wrap;html=1;" vertex="1" parent="X_hx1oaPw-TJNX2XA199-48">
          <mxGeometry y="26" width="180" height="26" as="geometry" />
        </mxCell>
        <mxCell id="X_hx1oaPw-TJNX2XA199-50" value="" style="line;strokeWidth=1;fillColor=none;align=left;verticalAlign=middle;spacingTop=-1;spacingLeft=3;spacingRight=3;rotatable=0;labelPosition=right;points=[];portConstraint=eastwest;strokeColor=inherit;" vertex="1" parent="X_hx1oaPw-TJNX2XA199-48">
          <mxGeometry y="52" width="180" height="8" as="geometry" />
        </mxCell>
        <mxCell id="X_hx1oaPw-TJNX2XA199-51" value="+&amp;nbsp;calculate_loss" style="text;strokeColor=none;fillColor=none;align=left;verticalAlign=top;spacingLeft=4;spacingRight=4;overflow=hidden;rotatable=0;points=[[0,0.5],[1,0.5]];portConstraint=eastwest;whiteSpace=wrap;html=1;" vertex="1" parent="X_hx1oaPw-TJNX2XA199-48">
          <mxGeometry y="60" width="180" height="26" as="geometry" />
        </mxCell>
        <mxCell id="X_hx1oaPw-TJNX2XA199-52" value="" style="endArrow=diamondThin;endFill=0;endSize=24;html=1;rounded=0;entryX=0;entryY=0.5;entryDx=0;entryDy=0;" edge="1" parent="WIyWlLk6GJQsqaUBKTNV-1" source="X_hx1oaPw-TJNX2XA199-48" target="X_hx1oaPw-TJNX2XA199-44">
          <mxGeometry width="160" relative="1" as="geometry">
            <mxPoint x="524" y="500" as="sourcePoint" />
            <mxPoint x="220" y="1020" as="targetPoint" />
          </mxGeometry>
        </mxCell>
        <mxCell id="X_hx1oaPw-TJNX2XA199-53" value="" style="endArrow=block;startArrow=none;endFill=0;startFill=0;endSize=8;html=1;verticalAlign=bottom;dashed=1;labelBackgroundColor=none;rounded=0;" edge="1" parent="WIyWlLk6GJQsqaUBKTNV-1" source="X_hx1oaPw-TJNX2XA199-43" target="X_hx1oaPw-TJNX2XA199-28">
          <mxGeometry width="160" relative="1" as="geometry">
            <mxPoint x="760" y="748" as="sourcePoint" />
            <mxPoint x="760" y="650" as="targetPoint" />
          </mxGeometry>
        </mxCell>
        <mxCell id="X_hx1oaPw-TJNX2XA199-54" value="CompositeLoss" style="swimlane;fontStyle=1;align=center;verticalAlign=top;childLayout=stackLayout;horizontal=1;startSize=26;horizontalStack=0;resizeParent=1;resizeParentMax=0;resizeLast=0;collapsible=1;marginBottom=0;whiteSpace=wrap;html=1;" vertex="1" parent="WIyWlLk6GJQsqaUBKTNV-1">
          <mxGeometry x="413" y="590" width="180" height="112" as="geometry" />
        </mxCell>
        <mxCell id="X_hx1oaPw-TJNX2XA199-55" value="+&amp;nbsp;losses" style="text;strokeColor=none;fillColor=none;align=left;verticalAlign=top;spacingLeft=4;spacingRight=4;overflow=hidden;rotatable=0;points=[[0,0.5],[1,0.5]];portConstraint=eastwest;whiteSpace=wrap;html=1;" vertex="1" parent="X_hx1oaPw-TJNX2XA199-54">
          <mxGeometry y="26" width="180" height="26" as="geometry" />
        </mxCell>
        <mxCell id="X_hx1oaPw-TJNX2XA199-56" value="" style="line;strokeWidth=1;fillColor=none;align=left;verticalAlign=middle;spacingTop=-1;spacingLeft=3;spacingRight=3;rotatable=0;labelPosition=right;points=[];portConstraint=eastwest;strokeColor=inherit;" vertex="1" parent="X_hx1oaPw-TJNX2XA199-54">
          <mxGeometry y="52" width="180" height="8" as="geometry" />
        </mxCell>
        <mxCell id="X_hx1oaPw-TJNX2XA199-57" value="+&amp;nbsp;add_loss" style="text;strokeColor=none;fillColor=none;align=left;verticalAlign=top;spacingLeft=4;spacingRight=4;overflow=hidden;rotatable=0;points=[[0,0.5],[1,0.5]];portConstraint=eastwest;whiteSpace=wrap;html=1;" vertex="1" parent="X_hx1oaPw-TJNX2XA199-54">
          <mxGeometry y="60" width="180" height="26" as="geometry" />
        </mxCell>
        <mxCell id="X_hx1oaPw-TJNX2XA199-58" value="+&amp;nbsp;calculate_loss" style="text;strokeColor=none;fillColor=none;align=left;verticalAlign=top;spacingLeft=4;spacingRight=4;overflow=hidden;rotatable=0;points=[[0,0.5],[1,0.5]];portConstraint=eastwest;whiteSpace=wrap;html=1;" vertex="1" parent="X_hx1oaPw-TJNX2XA199-54">
          <mxGeometry y="86" width="180" height="26" as="geometry" />
        </mxCell>
        <mxCell id="X_hx1oaPw-TJNX2XA199-59" value="" style="endArrow=block;startArrow=none;endFill=0;startFill=0;endSize=8;html=1;verticalAlign=bottom;dashed=1;labelBackgroundColor=none;rounded=0;" edge="1" parent="WIyWlLk6GJQsqaUBKTNV-1" source="X_hx1oaPw-TJNX2XA199-54" target="X_hx1oaPw-TJNX2XA199-28">
          <mxGeometry width="160" relative="1" as="geometry">
            <mxPoint x="600" y="758" as="sourcePoint" />
            <mxPoint x="725" y="650" as="targetPoint" />
          </mxGeometry>
        </mxCell>
        <mxCell id="X_hx1oaPw-TJNX2XA199-60" value="LogLossDecorator" style="swimlane;fontStyle=1;align=center;verticalAlign=top;childLayout=stackLayout;horizontal=1;startSize=26;horizontalStack=0;resizeParent=1;resizeParentMax=0;resizeLast=0;collapsible=1;marginBottom=0;whiteSpace=wrap;html=1;" vertex="1" parent="WIyWlLk6GJQsqaUBKTNV-1">
          <mxGeometry x="960" y="850" width="180" height="112" as="geometry" />
        </mxCell>
        <mxCell id="X_hx1oaPw-TJNX2XA199-61" value="+&amp;nbsp;lossObject" style="text;strokeColor=none;fillColor=none;align=left;verticalAlign=top;spacingLeft=4;spacingRight=4;overflow=hidden;rotatable=0;points=[[0,0.5],[1,0.5]];portConstraint=eastwest;whiteSpace=wrap;html=1;" vertex="1" parent="X_hx1oaPw-TJNX2XA199-60">
          <mxGeometry y="26" width="180" height="26" as="geometry" />
        </mxCell>
        <mxCell id="X_hx1oaPw-TJNX2XA199-65" value="+&amp;nbsp;logger" style="text;strokeColor=none;fillColor=none;align=left;verticalAlign=top;spacingLeft=4;spacingRight=4;overflow=hidden;rotatable=0;points=[[0,0.5],[1,0.5]];portConstraint=eastwest;whiteSpace=wrap;html=1;" vertex="1" parent="X_hx1oaPw-TJNX2XA199-60">
          <mxGeometry y="52" width="180" height="26" as="geometry" />
        </mxCell>
        <mxCell id="X_hx1oaPw-TJNX2XA199-62" value="" style="line;strokeWidth=1;fillColor=none;align=left;verticalAlign=middle;spacingTop=-1;spacingLeft=3;spacingRight=3;rotatable=0;labelPosition=right;points=[];portConstraint=eastwest;strokeColor=inherit;" vertex="1" parent="X_hx1oaPw-TJNX2XA199-60">
          <mxGeometry y="78" width="180" height="8" as="geometry" />
        </mxCell>
        <mxCell id="X_hx1oaPw-TJNX2XA199-64" value="+&amp;nbsp;calculate_loss" style="text;strokeColor=none;fillColor=none;align=left;verticalAlign=top;spacingLeft=4;spacingRight=4;overflow=hidden;rotatable=0;points=[[0,0.5],[1,0.5]];portConstraint=eastwest;whiteSpace=wrap;html=1;" vertex="1" parent="X_hx1oaPw-TJNX2XA199-60">
          <mxGeometry y="86" width="180" height="26" as="geometry" />
        </mxCell>
        <mxCell id="X_hx1oaPw-TJNX2XA199-66" value="" style="endArrow=block;startArrow=none;endFill=0;startFill=0;endSize=8;html=1;verticalAlign=bottom;dashed=1;labelBackgroundColor=none;rounded=0;" edge="1" parent="WIyWlLk6GJQsqaUBKTNV-1" source="X_hx1oaPw-TJNX2XA199-60" target="X_hx1oaPw-TJNX2XA199-28">
          <mxGeometry width="160" relative="1" as="geometry">
            <mxPoint x="760" y="748" as="sourcePoint" />
            <mxPoint x="760" y="650" as="targetPoint" />
          </mxGeometry>
        </mxCell>
        <mxCell id="X_hx1oaPw-TJNX2XA199-67" value="" style="endArrow=diamondThin;endFill=0;endSize=24;html=1;rounded=0;entryX=0;entryY=0.5;entryDx=0;entryDy=0;" edge="1" parent="WIyWlLk6GJQsqaUBKTNV-1" source="X_hx1oaPw-TJNX2XA199-28" target="X_hx1oaPw-TJNX2XA199-61">
          <mxGeometry width="160" relative="1" as="geometry">
            <mxPoint x="1450" y="950" as="sourcePoint" />
            <mxPoint x="800" y="1041" as="targetPoint" />
          </mxGeometry>
        </mxCell>
        <mxCell id="X_hx1oaPw-TJNX2XA199-68" value="" style="endArrow=diamondThin;endFill=0;endSize=24;html=1;rounded=0;entryX=0;entryY=0.5;entryDx=0;entryDy=0;" edge="1" parent="WIyWlLk6GJQsqaUBKTNV-1" source="X_hx1oaPw-TJNX2XA199-8" target="X_hx1oaPw-TJNX2XA199-65">
          <mxGeometry width="160" relative="1" as="geometry">
            <mxPoint x="785" y="650" as="sourcePoint" />
            <mxPoint x="970" y="869" as="targetPoint" />
          </mxGeometry>
        </mxCell>
        <mxCell id="X_hx1oaPw-TJNX2XA199-69" value="PreferenceLoss" style="swimlane;fontStyle=1;align=center;verticalAlign=top;childLayout=stackLayout;horizontal=1;startSize=26;horizontalStack=0;resizeParent=1;resizeParentMax=0;resizeLast=0;collapsible=1;marginBottom=0;whiteSpace=wrap;html=1;" vertex="1" parent="WIyWlLk6GJQsqaUBKTNV-1">
          <mxGeometry x="930" y="606" width="180" height="112" as="geometry" />
        </mxCell>
        <mxCell id="X_hx1oaPw-TJNX2XA199-70" value="+&amp;nbsp;decimals" style="text;strokeColor=none;fillColor=none;align=left;verticalAlign=top;spacingLeft=4;spacingRight=4;overflow=hidden;rotatable=0;points=[[0,0.5],[1,0.5]];portConstraint=eastwest;whiteSpace=wrap;html=1;" vertex="1" parent="X_hx1oaPw-TJNX2XA199-69">
          <mxGeometry y="26" width="180" height="26" as="geometry" />
        </mxCell>
        <mxCell id="X_hx1oaPw-TJNX2XA199-71" value="+&amp;nbsp;rewardModel" style="text;strokeColor=none;fillColor=none;align=left;verticalAlign=top;spacingLeft=4;spacingRight=4;overflow=hidden;rotatable=0;points=[[0,0.5],[1,0.5]];portConstraint=eastwest;whiteSpace=wrap;html=1;" vertex="1" parent="X_hx1oaPw-TJNX2XA199-69">
          <mxGeometry y="52" width="180" height="26" as="geometry" />
        </mxCell>
        <mxCell id="X_hx1oaPw-TJNX2XA199-72" value="" style="line;strokeWidth=1;fillColor=none;align=left;verticalAlign=middle;spacingTop=-1;spacingLeft=3;spacingRight=3;rotatable=0;labelPosition=right;points=[];portConstraint=eastwest;strokeColor=inherit;" vertex="1" parent="X_hx1oaPw-TJNX2XA199-69">
          <mxGeometry y="78" width="180" height="8" as="geometry" />
        </mxCell>
        <mxCell id="X_hx1oaPw-TJNX2XA199-73" value="+&amp;nbsp;calculate_loss" style="text;strokeColor=none;fillColor=none;align=left;verticalAlign=top;spacingLeft=4;spacingRight=4;overflow=hidden;rotatable=0;points=[[0,0.5],[1,0.5]];portConstraint=eastwest;whiteSpace=wrap;html=1;" vertex="1" parent="X_hx1oaPw-TJNX2XA199-69">
          <mxGeometry y="86" width="180" height="26" as="geometry" />
        </mxCell>
        <mxCell id="X_hx1oaPw-TJNX2XA199-74" value="" style="endArrow=block;startArrow=none;endFill=0;startFill=0;endSize=8;html=1;verticalAlign=bottom;dashed=1;labelBackgroundColor=none;rounded=0;" edge="1" parent="WIyWlLk6GJQsqaUBKTNV-1" source="X_hx1oaPw-TJNX2XA199-69" target="X_hx1oaPw-TJNX2XA199-28">
          <mxGeometry width="160" relative="1" as="geometry">
            <mxPoint x="1053" y="850" as="sourcePoint" />
            <mxPoint x="840" y="640" as="targetPoint" />
          </mxGeometry>
        </mxCell>
        <mxCell id="X_hx1oaPw-TJNX2XA199-75" value="" style="endArrow=diamondThin;endFill=0;endSize=24;html=1;rounded=0;entryX=0;entryY=0.5;entryDx=0;entryDy=0;" edge="1" parent="WIyWlLk6GJQsqaUBKTNV-1" source="X_hx1oaPw-TJNX2XA199-48" target="X_hx1oaPw-TJNX2XA199-71">
          <mxGeometry width="160" relative="1" as="geometry">
            <mxPoint x="380" y="767" as="sourcePoint" />
            <mxPoint x="460" y="797" as="targetPoint" />
          </mxGeometry>
        </mxCell>
        <mxCell id="X_hx1oaPw-TJNX2XA199-76" value="AbsLoss" style="swimlane;fontStyle=1;align=center;verticalAlign=top;childLayout=stackLayout;horizontal=1;startSize=26;horizontalStack=0;resizeParent=1;resizeParentMax=0;resizeLast=0;collapsible=1;marginBottom=0;whiteSpace=wrap;html=1;" vertex="1" parent="WIyWlLk6GJQsqaUBKTNV-1">
          <mxGeometry x="1061" y="1090" width="180" height="86" as="geometry" />
        </mxCell>
        <mxCell id="X_hx1oaPw-TJNX2XA199-79" value="" style="line;strokeWidth=1;fillColor=none;align=left;verticalAlign=middle;spacingTop=-1;spacingLeft=3;spacingRight=3;rotatable=0;labelPosition=right;points=[];portConstraint=eastwest;strokeColor=inherit;" vertex="1" parent="X_hx1oaPw-TJNX2XA199-76">
          <mxGeometry y="26" width="180" height="8" as="geometry" />
        </mxCell>
        <mxCell id="X_hx1oaPw-TJNX2XA199-81" value="+&amp;nbsp;add_data" style="text;strokeColor=none;fillColor=none;align=left;verticalAlign=top;spacingLeft=4;spacingRight=4;overflow=hidden;rotatable=0;points=[[0,0.5],[1,0.5]];portConstraint=eastwest;whiteSpace=wrap;html=1;" vertex="1" parent="X_hx1oaPw-TJNX2XA199-76">
          <mxGeometry y="34" width="180" height="26" as="geometry" />
        </mxCell>
        <mxCell id="X_hx1oaPw-TJNX2XA199-80" value="+&amp;nbsp;get_data_from_memory" style="text;strokeColor=none;fillColor=none;align=left;verticalAlign=top;spacingLeft=4;spacingRight=4;overflow=hidden;rotatable=0;points=[[0,0.5],[1,0.5]];portConstraint=eastwest;whiteSpace=wrap;html=1;" vertex="1" parent="X_hx1oaPw-TJNX2XA199-76">
          <mxGeometry y="60" width="180" height="26" as="geometry" />
        </mxCell>
        <mxCell id="X_hx1oaPw-TJNX2XA199-82" value="RoundsMemory" style="swimlane;fontStyle=1;align=center;verticalAlign=top;childLayout=stackLayout;horizontal=1;startSize=26;horizontalStack=0;resizeParent=1;resizeParentMax=0;resizeLast=0;collapsible=1;marginBottom=0;whiteSpace=wrap;html=1;" vertex="1" parent="WIyWlLk6GJQsqaUBKTNV-1">
          <mxGeometry x="1061" y="1290" width="180" height="164" as="geometry" />
        </mxCell>
        <mxCell id="X_hx1oaPw-TJNX2XA199-89" value="+&amp;nbsp;discount_factor" style="text;strokeColor=none;fillColor=none;align=left;verticalAlign=top;spacingLeft=4;spacingRight=4;overflow=hidden;rotatable=0;points=[[0,0.5],[1,0.5]];portConstraint=eastwest;whiteSpace=wrap;html=1;" vertex="1" parent="X_hx1oaPw-TJNX2XA199-82">
          <mxGeometry y="26" width="180" height="26" as="geometry" />
        </mxCell>
        <mxCell id="X_hx1oaPw-TJNX2XA199-90" value="+&amp;nbsp;memory_list" style="text;strokeColor=none;fillColor=none;align=left;verticalAlign=top;spacingLeft=4;spacingRight=4;overflow=hidden;rotatable=0;points=[[0,0.5],[1,0.5]];portConstraint=eastwest;whiteSpace=wrap;html=1;" vertex="1" parent="X_hx1oaPw-TJNX2XA199-82">
          <mxGeometry y="52" width="180" height="26" as="geometry" />
        </mxCell>
        <mxCell id="X_hx1oaPw-TJNX2XA199-83" value="+&amp;nbsp;limit" style="text;strokeColor=none;fillColor=none;align=left;verticalAlign=top;spacingLeft=4;spacingRight=4;overflow=hidden;rotatable=0;points=[[0,0.5],[1,0.5]];portConstraint=eastwest;whiteSpace=wrap;html=1;" vertex="1" parent="X_hx1oaPw-TJNX2XA199-82">
          <mxGeometry y="78" width="180" height="26" as="geometry" />
        </mxCell>
        <mxCell id="X_hx1oaPw-TJNX2XA199-85" value="" style="line;strokeWidth=1;fillColor=none;align=left;verticalAlign=middle;spacingTop=-1;spacingLeft=3;spacingRight=3;rotatable=0;labelPosition=right;points=[];portConstraint=eastwest;strokeColor=inherit;" vertex="1" parent="X_hx1oaPw-TJNX2XA199-82">
          <mxGeometry y="104" width="180" height="8" as="geometry" />
        </mxCell>
        <mxCell id="X_hx1oaPw-TJNX2XA199-86" value="+&amp;nbsp;add_data" style="text;strokeColor=none;fillColor=none;align=left;verticalAlign=top;spacingLeft=4;spacingRight=4;overflow=hidden;rotatable=0;points=[[0,0.5],[1,0.5]];portConstraint=eastwest;whiteSpace=wrap;html=1;" vertex="1" parent="X_hx1oaPw-TJNX2XA199-82">
          <mxGeometry y="112" width="180" height="26" as="geometry" />
        </mxCell>
        <mxCell id="X_hx1oaPw-TJNX2XA199-87" value="+&amp;nbsp;get_data_from_memory" style="text;strokeColor=none;fillColor=none;align=left;verticalAlign=top;spacingLeft=4;spacingRight=4;overflow=hidden;rotatable=0;points=[[0,0.5],[1,0.5]];portConstraint=eastwest;whiteSpace=wrap;html=1;" vertex="1" parent="X_hx1oaPw-TJNX2XA199-82">
          <mxGeometry y="138" width="180" height="26" as="geometry" />
        </mxCell>
        <mxCell id="X_hx1oaPw-TJNX2XA199-88" value="" style="endArrow=block;startArrow=none;endFill=0;startFill=0;endSize=8;html=1;verticalAlign=bottom;dashed=1;labelBackgroundColor=none;rounded=0;" edge="1" parent="WIyWlLk6GJQsqaUBKTNV-1" source="X_hx1oaPw-TJNX2XA199-82" target="X_hx1oaPw-TJNX2XA199-76">
          <mxGeometry width="160" relative="1" as="geometry">
            <mxPoint x="1003" y="860" as="sourcePoint" />
            <mxPoint x="790" y="650" as="targetPoint" />
          </mxGeometry>
        </mxCell>
        <mxCell id="X_hx1oaPw-TJNX2XA199-91" value="return" style="html=1;verticalAlign=bottom;endArrow=open;dashed=1;endSize=8;curved=0;rounded=0;exitX=0;exitY=0.5;exitDx=0;exitDy=0;" edge="1" parent="WIyWlLk6GJQsqaUBKTNV-1" source="X_hx1oaPw-TJNX2XA199-87" target="Gzsf5MgbfDvUHmPUTWWB-28">
          <mxGeometry relative="1" as="geometry">
            <mxPoint x="1430" y="1144" as="sourcePoint" />
            <mxPoint x="1280" y="1130" as="targetPoint" />
          </mxGeometry>
        </mxCell>
        <mxCell id="X_hx1oaPw-TJNX2XA199-93" value="CompositeLogger" style="swimlane;fontStyle=1;align=center;verticalAlign=top;childLayout=stackLayout;horizontal=1;startSize=26;horizontalStack=0;resizeParent=1;resizeParentMax=0;resizeLast=0;collapsible=1;marginBottom=0;whiteSpace=wrap;html=1;" vertex="1" parent="WIyWlLk6GJQsqaUBKTNV-1">
          <mxGeometry x="1170" y="870" width="180" height="138" as="geometry" />
        </mxCell>
        <mxCell id="X_hx1oaPw-TJNX2XA199-94" value="+&amp;nbsp;loggers" style="text;strokeColor=none;fillColor=none;align=left;verticalAlign=top;spacingLeft=4;spacingRight=4;overflow=hidden;rotatable=0;points=[[0,0.5],[1,0.5]];portConstraint=eastwest;whiteSpace=wrap;html=1;" vertex="1" parent="X_hx1oaPw-TJNX2XA199-93">
          <mxGeometry y="26" width="180" height="26" as="geometry" />
        </mxCell>
        <mxCell id="X_hx1oaPw-TJNX2XA199-95" value="" style="line;strokeWidth=1;fillColor=none;align=left;verticalAlign=middle;spacingTop=-1;spacingLeft=3;spacingRight=3;rotatable=0;labelPosition=right;points=[];portConstraint=eastwest;strokeColor=inherit;" vertex="1" parent="X_hx1oaPw-TJNX2XA199-93">
          <mxGeometry y="52" width="180" height="8" as="geometry" />
        </mxCell>
        <mxCell id="X_hx1oaPw-TJNX2XA199-98" value="+&amp;nbsp;add_logger" style="text;strokeColor=none;fillColor=none;align=left;verticalAlign=top;spacingLeft=4;spacingRight=4;overflow=hidden;rotatable=0;points=[[0,0.5],[1,0.5]];portConstraint=eastwest;whiteSpace=wrap;html=1;" vertex="1" parent="X_hx1oaPw-TJNX2XA199-93">
          <mxGeometry y="60" width="180" height="26" as="geometry" />
        </mxCell>
        <mxCell id="X_hx1oaPw-TJNX2XA199-96" value="+&amp;nbsp;log" style="text;strokeColor=none;fillColor=none;align=left;verticalAlign=top;spacingLeft=4;spacingRight=4;overflow=hidden;rotatable=0;points=[[0,0.5],[1,0.5]];portConstraint=eastwest;whiteSpace=wrap;html=1;" vertex="1" parent="X_hx1oaPw-TJNX2XA199-93">
          <mxGeometry y="86" width="180" height="26" as="geometry" />
        </mxCell>
        <mxCell id="X_hx1oaPw-TJNX2XA199-97" value="+ log_last_entries_mean" style="text;strokeColor=none;fillColor=none;align=left;verticalAlign=top;spacingLeft=4;spacingRight=4;overflow=hidden;rotatable=0;points=[[0,0.5],[1,0.5]];portConstraint=eastwest;whiteSpace=wrap;html=1;" vertex="1" parent="X_hx1oaPw-TJNX2XA199-93">
          <mxGeometry y="112" width="180" height="26" as="geometry" />
        </mxCell>
        <mxCell id="X_hx1oaPw-TJNX2XA199-99" value="" style="endArrow=block;startArrow=none;endFill=0;startFill=0;endSize=8;html=1;verticalAlign=bottom;dashed=1;labelBackgroundColor=none;rounded=0;" edge="1" parent="WIyWlLk6GJQsqaUBKTNV-1" source="X_hx1oaPw-TJNX2XA199-93" target="X_hx1oaPw-TJNX2XA199-8">
          <mxGeometry width="160" relative="1" as="geometry">
            <mxPoint x="799" y="830" as="sourcePoint" />
            <mxPoint x="766" y="650" as="targetPoint" />
          </mxGeometry>
        </mxCell>
        <mxCell id="X_hx1oaPw-TJNX2XA199-100" value="" style="endArrow=diamondThin;endFill=0;endSize=24;html=1;rounded=0;entryX=0;entryY=0.5;entryDx=0;entryDy=0;" edge="1" parent="WIyWlLk6GJQsqaUBKTNV-1" source="X_hx1oaPw-TJNX2XA199-8" target="X_hx1oaPw-TJNX2XA199-94">
          <mxGeometry width="160" relative="1" as="geometry">
            <mxPoint x="1216" y="728" as="sourcePoint" />
            <mxPoint x="970" y="925" as="targetPoint" />
          </mxGeometry>
        </mxCell>
        <mxCell id="X_hx1oaPw-TJNX2XA199-101" value="" style="endArrow=diamondThin;endFill=0;endSize=24;html=1;rounded=0;entryX=0;entryY=0.5;entryDx=0;entryDy=0;" edge="1" parent="WIyWlLk6GJQsqaUBKTNV-1" source="X_hx1oaPw-TJNX2XA199-28" target="X_hx1oaPw-TJNX2XA199-55">
          <mxGeometry width="160" relative="1" as="geometry">
            <mxPoint x="380" y="767" as="sourcePoint" />
            <mxPoint x="460" y="797" as="targetPoint" />
          </mxGeometry>
        </mxCell>
        <mxCell id="X_hx1oaPw-TJNX2XA199-102" value="TensorboardScalarLogger" style="swimlane;fontStyle=1;align=center;verticalAlign=top;childLayout=stackLayout;horizontal=1;startSize=26;horizontalStack=0;resizeParent=1;resizeParentMax=0;resizeLast=0;collapsible=1;marginBottom=0;whiteSpace=wrap;html=1;" vertex="1" parent="WIyWlLk6GJQsqaUBKTNV-1">
          <mxGeometry x="1430" y="468" width="180" height="190" as="geometry" />
        </mxCell>
        <mxCell id="X_hx1oaPw-TJNX2XA199-108" value="+&amp;nbsp;name" style="text;strokeColor=none;fillColor=none;align=left;verticalAlign=top;spacingLeft=4;spacingRight=4;overflow=hidden;rotatable=0;points=[[0,0.5],[1,0.5]];portConstraint=eastwest;whiteSpace=wrap;html=1;" vertex="1" parent="X_hx1oaPw-TJNX2XA199-102">
          <mxGeometry y="26" width="180" height="26" as="geometry" />
        </mxCell>
        <mxCell id="X_hx1oaPw-TJNX2XA199-103" value="+&amp;nbsp;writer" style="text;strokeColor=none;fillColor=none;align=left;verticalAlign=top;spacingLeft=4;spacingRight=4;overflow=hidden;rotatable=0;points=[[0,0.5],[1,0.5]];portConstraint=eastwest;whiteSpace=wrap;html=1;" vertex="1" parent="X_hx1oaPw-TJNX2XA199-102">
          <mxGeometry y="52" width="180" height="26" as="geometry" />
        </mxCell>
        <mxCell id="X_hx1oaPw-TJNX2XA199-110" value="+&amp;nbsp;history" style="text;strokeColor=none;fillColor=none;align=left;verticalAlign=top;spacingLeft=4;spacingRight=4;overflow=hidden;rotatable=0;points=[[0,0.5],[1,0.5]];portConstraint=eastwest;whiteSpace=wrap;html=1;" vertex="1" parent="X_hx1oaPw-TJNX2XA199-102">
          <mxGeometry y="78" width="180" height="26" as="geometry" />
        </mxCell>
        <mxCell id="X_hx1oaPw-TJNX2XA199-104" value="" style="line;strokeWidth=1;fillColor=none;align=left;verticalAlign=middle;spacingTop=-1;spacingLeft=3;spacingRight=3;rotatable=0;labelPosition=right;points=[];portConstraint=eastwest;strokeColor=inherit;" vertex="1" parent="X_hx1oaPw-TJNX2XA199-102">
          <mxGeometry y="104" width="180" height="8" as="geometry" />
        </mxCell>
        <mxCell id="X_hx1oaPw-TJNX2XA199-106" value="+&amp;nbsp;log" style="text;strokeColor=none;fillColor=none;align=left;verticalAlign=top;spacingLeft=4;spacingRight=4;overflow=hidden;rotatable=0;points=[[0,0.5],[1,0.5]];portConstraint=eastwest;whiteSpace=wrap;html=1;" vertex="1" parent="X_hx1oaPw-TJNX2XA199-102">
          <mxGeometry y="112" width="180" height="26" as="geometry" />
        </mxCell>
        <mxCell id="X_hx1oaPw-TJNX2XA199-111" value="+ log_last_entries_mean" style="text;strokeColor=none;fillColor=none;align=left;verticalAlign=top;spacingLeft=4;spacingRight=4;overflow=hidden;rotatable=0;points=[[0,0.5],[1,0.5]];portConstraint=eastwest;whiteSpace=wrap;html=1;" vertex="1" parent="X_hx1oaPw-TJNX2XA199-102">
          <mxGeometry y="138" width="180" height="26" as="geometry" />
        </mxCell>
        <mxCell id="X_hx1oaPw-TJNX2XA199-107" value="+&amp;nbsp;get_logged_history" style="text;strokeColor=none;fillColor=none;align=left;verticalAlign=top;spacingLeft=4;spacingRight=4;overflow=hidden;rotatable=0;points=[[0,0.5],[1,0.5]];portConstraint=eastwest;whiteSpace=wrap;html=1;" vertex="1" parent="X_hx1oaPw-TJNX2XA199-102">
          <mxGeometry y="164" width="180" height="26" as="geometry" />
        </mxCell>
        <mxCell id="X_hx1oaPw-TJNX2XA199-112" value="" style="endArrow=block;startArrow=none;endFill=0;startFill=0;endSize=8;html=1;verticalAlign=bottom;dashed=1;labelBackgroundColor=none;rounded=0;" edge="1" parent="WIyWlLk6GJQsqaUBKTNV-1" source="X_hx1oaPw-TJNX2XA199-102" target="X_hx1oaPw-TJNX2XA199-8">
          <mxGeometry width="160" relative="1" as="geometry">
            <mxPoint x="1270" y="880" as="sourcePoint" />
            <mxPoint x="1270" y="728" as="targetPoint" />
          </mxGeometry>
        </mxCell>
        <mxCell id="X_hx1oaPw-TJNX2XA199-113" value="AbsPreferenceDataGenerator" style="swimlane;fontStyle=1;align=center;verticalAlign=top;childLayout=stackLayout;horizontal=1;startSize=26;horizontalStack=0;resizeParent=1;resizeParentMax=0;resizeLast=0;collapsible=1;marginBottom=0;whiteSpace=wrap;html=1;" vertex="1" parent="WIyWlLk6GJQsqaUBKTNV-1">
          <mxGeometry x="1190" y="40" width="190" height="60" as="geometry" />
        </mxCell>
        <mxCell id="X_hx1oaPw-TJNX2XA199-114" value="" style="line;strokeWidth=1;fillColor=none;align=left;verticalAlign=middle;spacingTop=-1;spacingLeft=3;spacingRight=3;rotatable=0;labelPosition=right;points=[];portConstraint=eastwest;strokeColor=inherit;" vertex="1" parent="X_hx1oaPw-TJNX2XA199-113">
          <mxGeometry y="26" width="190" height="8" as="geometry" />
        </mxCell>
        <mxCell id="X_hx1oaPw-TJNX2XA199-115" value="+&amp;nbsp;generate_preference_data" style="text;strokeColor=none;fillColor=none;align=left;verticalAlign=top;spacingLeft=4;spacingRight=4;overflow=hidden;rotatable=0;points=[[0,0.5],[1,0.5]];portConstraint=eastwest;whiteSpace=wrap;html=1;" vertex="1" parent="X_hx1oaPw-TJNX2XA199-113">
          <mxGeometry y="34" width="190" height="26" as="geometry" />
        </mxCell>
      </root>
    </mxGraphModel>
  </diagram>
</mxfile>
